<svg xmlns="http://www.w3.org/2000/svg" viewBox="0 0 64 64" fill="none" role="img" aria-label="SalonBazar">
  <defs>
    <linearGradient id="sbGold" x1="8" y1="6" x2="56" y2="58" gradientUnits="userSpaceOnUse">
      <stop offset="0%" stop-color="#F8EED0"/>
      <stop offset="38%" stop-color="#D4B56A"/>
      <stop offset="72%" stop-color="#C9A84C"/>
      <stop offset="100%" stop-color="#7A5E1E"/>
    </linearGradient>
    <linearGradient id="sbGoldSoft" x1="20" y1="18" x2="44" y2="46" gradientUnits="userSpaceOnUse">
      <stop offset="0%" stop-color="#FFF8E8" stop-opacity="0.95"/>
      <stop offset="100%" stop-color="#C9A84C" stop-opacity="0.35"/>
    </linearGradient>
    <radialGradient id="sbGlow" cx="0" cy="0" r="1" gradientUnits="userSpaceOnUse" gradient-transform="translate(32 30) rotate(90) scale(22)">
      <stop stop-color="#F5E6B8" stop-opacity="0.45"/>
      <stop offset="1" stop-color="#C9A84C" stop-opacity="0"/>
    </radialGradient>
  </defs>
  <circle cx="32" cy="32" r="30" stroke="url(#sbGold)" stroke-width="1.2" opacity="0.55"/>
  <circle cx="32" cy="32" r="26.5" stroke="url(#sbGold)" stroke-width="1.8"/>
  <circle cx="32" cy="32" r="23" fill="url(#sbGlow)"/>
  <path d="M32 8 L38.2 12.2 L40 19.5 L32 23.5 L24 19.5 L25.8 12.2 Z" stroke="url(#sbGold)" stroke-width="1.1" fill="url(#sbGoldSoft)"/>
  <path d="M22 46 C22 34 27 28 32 28 C37 28 42 34 42 46" stroke="url(#sbGold)" stroke-width="2.2" stroke-linecap="round"/>
  <path d="M24 38 C26.5 33.5 29.5 31.5 32 31.5 C34.5 31.5 37.5 33.5 40 38" stroke="url(#sbGold)" stroke-width="1.4" stroke-linecap="round" opacity="0.85"/>
  <path d="M26 20 C28 15.5 30 14 32 14 C34 14 36 15.5 38 20" stroke="url(#sbGold)" stroke-width="1.5" stroke-linecap="round" opacity="0.7"/>
  <path d="M28.5 18.5 C30 22 31 24.5 32 26.5 C33 24.5 34 22 35.5 18.5" stroke="url(#sbGold)" stroke-width="2.4" stroke-linecap="round" fill="none"/>
  <path d="M32 26.5 V42" stroke="url(#sbGold)" stroke-width="2.2" stroke-linecap="round"/>
  <circle cx="32" cy="44.5" r="1.6" fill="url(#sbGold)"/>
  <circle cx="18" cy="32" r="1.1" fill="#E8C97A" opacity="0.8"/>
  <circle cx="46" cy="32" r="1.1" fill="#E8C97A" opacity="0.8"/>
</svg>
